<svg width="27" height="32" viewBox="0 0 27 32" fill="none" xmlns="http://www.w3.org/2000/svg">
<path d="M25.2398 4.23399C22.3384 -0.0190902 16.6081 -1.27958 12.4652 1.42433L5.18933 6.17475C4.20732 6.80665 3.36469 7.64138 2.71525 8.62566C2.0658 9.60994 1.62381 10.7221 1.41747 11.8913C1.06954 13.8645 1.37388 15.9003 2.28232 17.6764C1.65971 18.644 1.23545 19.7312 1.03527 20.8719C0.827458 22.0669 0.854916 23.2923 1.11603 24.4762C1.37713 25.6602 1.86663 26.7787 2.55572 27.766C5.45715 32.0191 11.1875 33.2796 15.3304 30.5757L22.6062 25.8453C23.5871 25.212 24.4289 24.3769 25.0782 23.3929C25.7275 22.4088 26.1701 21.2973 26.3781 20.1287C26.7248 18.1561 26.4194 16.1214 25.5105 14.3465C26.1327 13.3784 26.5579 12.2915 26.7603 11.151C26.9675 9.956 26.9397 8.73067 26.6786 7.54683C26.4175 6.363 25.9284 5.24448 25.2398 4.25686" fill="#FF3E00"/>
<path d="M11.754 28.1775C10.6085 28.482 9.39946 28.4192 8.28995 27.9976C7.18044 27.5759 6.22389 26.8157 5.54939 25.8195C5.13526 25.2259 4.8412 24.5534 4.68453 23.8417C4.52785 23.1299 4.51174 22.3932 4.63712 21.675C4.67827 21.4414 4.73608 21.2111 4.81009 20.9861L4.94679 20.5574L5.32063 20.8432C6.17992 21.486 7.13923 21.975 8.15789 22.2895L8.43687 22.3724L8.41176 22.6582C8.38492 23.0501 8.49247 23.4393 8.71585 23.7587C8.91938 24.0583 9.20765 24.2869 9.54184 24.4137C9.87604 24.5404 10.2401 24.5592 10.585 24.4675C10.7428 24.4241 10.8932 24.3566 11.0314 24.2674L18.2961 19.517C18.4746 19.402 18.6275 19.25 18.7452 19.0708C18.863 18.8917 18.9428 18.6893 18.9796 18.4766C19.0168 18.2599 19.0113 18.0377 18.9634 17.8232C18.9155 17.6087 18.8261 17.4061 18.7007 17.2275C18.4971 16.9279 18.2089 16.6993 17.8747 16.5725C17.5405 16.4458 17.1764 16.427 16.8315 16.5187C16.6736 16.5616 16.523 16.6291 16.3851 16.7188L13.5953 18.5338C13.139 18.8302 12.6414 19.0538 12.1194 19.1969C10.9759 19.4996 9.76927 19.4361 8.66198 19.015C7.55469 18.594 6.59987 17.8355 5.92602 16.8417C5.51313 16.2475 5.22024 15.5749 5.06454 14.8632C4.90884 14.1515 4.89347 13.4151 5.01933 12.6972C5.14252 11.9926 5.40788 11.3221 5.79843 10.7285C6.18899 10.135 6.69614 9.63145 7.28746 9.25016L14.5745 4.49974C15.0281 4.20392 15.5229 3.98034 16.042 3.83663C17.187 3.5319 18.3957 3.59462 19.5048 4.01633C20.614 4.43804 21.57 5.19841 22.2437 6.19468C22.6584 6.78805 22.9529 7.46041 23.1101 8.17218C23.2672 8.88394 23.2838 9.62073 23.1588 10.3392C23.1153 10.5741 23.0575 10.8061 22.9858 11.0337L22.8464 11.4624L22.4753 11.1766C21.6143 10.529 20.652 10.0361 19.6297 9.71891L19.3507 9.63602L19.3758 9.3502C19.408 8.95636 19.3033 8.56354 19.0801 8.24119C18.8753 7.94667 18.5878 7.723 18.2559 7.59995C17.924 7.4769 17.5634 7.4603 17.222 7.55236C17.0641 7.59525 16.9136 7.66272 16.7757 7.75243L9.49701 12.4943C9.31923 12.6094 9.1667 12.761 9.04905 12.9396C8.93141 13.1182 8.8512 13.3199 8.8135 13.5318C8.77702 13.749 8.7829 13.9715 8.83078 14.1864C8.87866 14.4012 8.96761 14.6043 9.09248 14.7837C9.29507 15.0807 9.58102 15.3075 9.91236 15.4341C10.2437 15.5607 10.6048 15.5811 10.9477 15.4926C11.1052 15.4486 11.2556 15.3811 11.3941 15.2925L14.1839 13.4804C14.6399 13.1807 15.1388 12.956 15.6625 12.8144C16.8073 12.509 18.016 12.571 19.1251 12.9923C20.2343 13.4135 21.1905 14.1735 21.8643 15.1696C22.2787 15.7631 22.5731 16.4355 22.7302 17.1472C22.8873 17.8589 22.9041 18.5956 22.7794 19.3141C22.6562 20.0187 22.3908 20.6892 22.0003 21.2828C21.6097 21.8763 21.1026 22.3798 20.5113 22.7611L13.2326 27.5115C12.7755 27.8089 12.2769 28.0335 11.754 28.1775Z" fill="white"/>
</svg>
