<svg width="14" height="14" viewBox="0 0 14 14" fill="none" xmlns="http://www.w3.org/2000/svg">
<path d="M9.52246 8.5H8.92996L8.71996 8.2975C9.45496 7.4425 9.89746 6.3325 9.89746 5.125C9.89746 2.4325 7.71496 0.25 5.02246 0.25C2.32996 0.25 0.147461 2.4325 0.147461 5.125C0.147461 7.8175 2.32996 10 5.02246 10C6.22996 10 7.33996 9.5575 8.19496 8.8225L8.39746 9.0325V9.625L12.1475 13.3675L13.265 12.25L9.52246 8.5ZM5.02246 8.5C3.15496 8.5 1.64746 6.9925 1.64746 5.125C1.64746 3.2575 3.15496 1.75 5.02246 1.75C6.88996 1.75 8.39746 3.2575 8.39746 5.125C8.39746 6.9925 6.88996 8.5 5.02246 8.5Z" fill="#838489"/>
</svg>
